<svg width="272" height="260" viewBox="0 0 272 260" fill="none" xmlns="http://www.w3.org/2000/svg">
<ellipse cx="136" cy="130" rx="136" ry="130" fill="#5C9CFD"/>
<path d="M151.799 111.658C151.799 104.234 146.382 100.135 136.868 100.135H119.368V124.054H134.125C145.514 124.02 151.799 119.586 151.799 111.658ZM215.514 107.358C212.215 96.9773 211.729 84.2453 212.111 74.4023C212.493 64.1562 204.229 54.75 193.118 54.75H78.9514C67.8056 54.75 59.5764 64.1898 59.9583 74.4023C60.3056 84.2453 59.8542 96.9773 56.5556 107.358C53.2222 117.772 47.6319 124.356 38.4306 125.196V134.77C47.5972 135.61 53.2222 142.195 56.5556 152.609C59.8542 162.989 60.3403 175.721 59.9583 185.564C59.5764 195.81 67.8403 205.216 78.9514 205.216H193.083C204.229 205.216 212.458 195.777 212.076 185.564C211.729 175.721 212.181 162.989 215.479 152.609C218.813 142.195 224.403 135.61 233.569 134.77V125.196C224.437 124.356 218.812 117.772 215.514 107.358ZM140.236 170.01H106.243V89.9563H140.063C155.097 89.9563 164.958 97.8172 164.958 109.911C164.958 118.41 158.326 126.002 149.854 127.312V127.749C161.382 128.959 169.125 136.685 169.125 147.334C169.125 161.477 158.257 170.01 140.236 170.01ZM136.764 133.494H119.368V159.831H137.528C149.403 159.831 155.688 155.229 155.688 146.562C155.688 137.928 149.229 133.494 136.764 133.494Z" fill="white"/>
</svg>
