<svg width="272" height="260" viewBox="0 0 272 260" fill="none" xmlns="http://www.w3.org/2000/svg">
<ellipse cx="136" cy="130" rx="136" ry="130" fill="#5C9CFD"/>
<g clip-path="url(#clip0_0_1)">
<path d="M83.1429 88.9375C85.7003 88.9375 88.153 88.0881 89.9614 86.576C91.7698 85.064 92.7857 83.0133 92.7857 80.875C92.7857 78.7367 91.7698 76.686 89.9614 75.174C88.153 73.6619 85.7003 72.8125 83.1429 72.8125C80.5854 72.8125 78.1327 73.6619 76.3243 75.174C74.5159 76.686 73.5 78.7367 73.5 80.875C73.5 83.0133 74.5159 85.064 76.3243 86.576C78.1327 88.0881 80.5854 88.9375 83.1429 88.9375ZM115.286 80.875C115.286 91.8937 107.371 101.367 96 105.499V134.995C103.554 131.333 112.353 129.25 121.714 129.25H160.286C174.469 129.25 186 119.609 186 107.75V105.499C174.629 101.367 166.714 91.8937 166.714 80.875C166.714 66.0266 181.098 54 198.857 54C216.616 54 231 66.0266 231 80.875C231 91.8937 223.085 101.367 211.714 105.499V107.75C211.714 131.501 188.692 150.75 160.286 150.75H121.714C107.531 150.75 96 160.391 96 172.25V174.501C107.371 178.633 115.286 188.106 115.286 199.125C115.286 213.973 100.902 226 83.1429 226C65.3839 226 51 213.973 51 199.125C51 188.106 58.9152 178.633 70.2857 174.501V172.25V105.499C58.9152 101.367 51 91.8937 51 80.875C51 66.0266 65.3839 54 83.1429 54C100.902 54 115.286 66.0266 115.286 80.875ZM208.5 80.875C208.5 78.7367 207.484 76.686 205.676 75.174C203.867 73.6619 201.415 72.8125 198.857 72.8125C196.3 72.8125 193.847 73.6619 192.039 75.174C190.23 76.686 189.214 78.7367 189.214 80.875C189.214 83.0133 190.23 85.064 192.039 86.576C193.847 88.0881 196.3 88.9375 198.857 88.9375C201.415 88.9375 203.867 88.0881 205.676 86.576C207.484 85.064 208.5 83.0133 208.5 80.875ZM83.1429 207.188C85.7003 207.188 88.153 206.338 89.9614 204.826C91.7698 203.314 92.7857 201.263 92.7857 199.125C92.7857 196.987 91.7698 194.936 89.9614 193.424C88.153 191.912 85.7003 191.062 83.1429 191.062C80.5854 191.062 78.1327 191.912 76.3243 193.424C74.5159 194.936 73.5 196.987 73.5 199.125C73.5 201.263 74.5159 203.314 76.3243 204.826C78.1327 206.338 80.5854 207.188 83.1429 207.188Z" fill="white"/>
</g>
<defs>
<clipPath id="clip0_0_1">
<rect width="180" height="172" fill="white" transform="translate(51 54)"/>
</clipPath>
</defs>
</svg>
