<svg width="272" height="260" viewBox="0 0 272 260" fill="none" xmlns="http://www.w3.org/2000/svg">
<ellipse cx="136" cy="130" rx="136" ry="130" fill="#5C9CFD"/>
<g clip-path="url(#clip0_0_1)">
<path d="M158.75 39.4031C153.437 37.757 147.906 41.0828 146.375 46.7938L106.375 197.294C104.844 203.005 107.938 208.951 113.25 210.597C118.563 212.243 124.094 208.917 125.625 203.206L165.625 52.7063C167.156 46.9953 164.062 41.0492 158.75 39.4031ZM183.938 79.7492C180.031 83.9484 180.031 90.768 183.938 94.9672L211.844 125L183.906 155.033C180 159.232 180 166.052 183.906 170.251C187.812 174.45 194.156 174.45 198.062 170.251L233.062 132.626C236.969 128.427 236.969 121.607 233.062 117.408L198.062 79.7828C194.156 75.5836 187.812 75.5836 183.906 79.7828L183.938 79.7492ZM88.0938 79.7492C84.1875 75.55 77.8438 75.55 73.9375 79.7492L38.9375 117.374C35.0312 121.573 35.0312 128.393 38.9375 132.592L73.9375 170.217C77.8438 174.416 84.1875 174.416 88.0938 170.217C92 166.018 92 159.198 88.0938 154.999L60.1563 125L88.0938 94.9672C92 90.768 92 83.9484 88.0938 79.7492Z" fill="white"/>
</g>
<defs>
<clipPath id="clip0_0_1">
<rect width="200" height="172" fill="white" transform="translate(36 39)"/>
</clipPath>
</defs>
</svg>
