<svg width="272" height="260" viewBox="0 0 272 260" fill="none" xmlns="http://www.w3.org/2000/svg">
<ellipse cx="136" cy="130" rx="136" ry="130" fill="#5C9CFD"/>
<path d="M202.786 55H69.2143C59.1585 55 51 62.2227 51 71.125V189.375C51 198.277 59.1585 205.5 69.2143 205.5H202.786C212.842 205.5 221 198.277 221 189.375V71.125C221 62.2227 212.842 55 202.786 55ZM143.513 172.377C143.513 187.023 133.799 193.709 119.645 193.709C106.857 193.709 99.4576 187.863 95.6629 180.775L108.679 173.821C111.183 177.752 113.46 181.077 118.962 181.077C124.199 181.077 127.538 179.263 127.538 172.175V124.102H143.513V172.377ZM181.308 193.709C166.471 193.709 156.871 187.46 152.203 179.263L165.219 172.612C168.634 177.55 173.112 181.212 180.967 181.212C187.569 181.212 191.819 178.289 191.819 174.224C191.819 169.387 187.493 167.673 180.17 164.818L176.185 163.306C164.65 158.973 157.022 153.497 157.022 141.974C157.022 131.359 166.167 123.296 180.397 123.296C190.567 123.296 197.853 126.42 203.089 134.617L190.643 141.672C187.911 137.338 184.951 135.625 180.359 135.625C175.692 135.625 172.732 138.245 172.732 141.672C172.732 145.905 175.692 147.618 182.56 150.272L186.545 151.784C200.129 156.923 207.757 162.198 207.757 174.023C207.757 186.721 196.449 193.709 181.308 193.709Z" fill="white"/>
</svg>
