<svg width="272" height="260" viewBox="0 0 272 260" fill="none" xmlns="http://www.w3.org/2000/svg">
<ellipse cx="136" cy="130" rx="136" ry="130" fill="#5C9CFD"/>
<path d="M134.844 203.683C134.187 203.683 133.531 203.481 132.938 203.145L126.938 199.315C126.031 198.778 126.469 198.576 126.781 198.476C127.969 198.039 128.219 197.938 129.5 197.132C129.625 197.065 129.813 197.098 129.938 197.165L134.562 200.122C134.719 200.222 134.969 200.222 135.125 200.122L153.188 188.901C153.344 188.801 153.469 188.599 153.469 188.364V165.957C153.469 165.722 153.375 165.52 153.188 165.419L135.125 154.233C134.969 154.132 134.75 154.132 134.562 154.233L116.5 165.419C116.313 165.52 116.219 165.755 116.219 165.957V188.364C116.219 188.565 116.344 188.767 116.5 188.868L121.437 191.925C124.125 193.369 125.781 191.656 125.781 189.976V167.838C125.781 167.536 126 167.267 126.312 167.267H128.594C128.875 167.267 129.125 167.502 129.125 167.838V189.976C129.125 193.84 127.187 196.023 123.781 196.023C122.75 196.023 121.906 196.023 119.625 194.814L114.875 191.891C113.719 191.152 112.969 189.808 112.969 188.364V165.957C112.969 164.512 113.687 163.135 114.875 162.429L132.938 151.209C134.094 150.504 135.594 150.504 136.719 151.209L154.781 162.429C155.938 163.169 156.688 164.512 156.688 165.957V188.364C156.688 189.808 155.969 191.186 154.781 191.891L136.719 203.112C136.187 203.481 135.531 203.683 134.844 203.683ZM149.438 181.578C149.438 177.379 146.812 176.27 141.25 175.464C135.625 174.658 135.062 174.254 135.062 172.844C135.062 171.668 135.531 170.122 139.687 170.122C143.406 170.122 144.781 170.996 145.344 173.683C145.406 173.952 145.594 174.12 145.844 174.12H148.188C148.344 174.12 148.469 174.053 148.563 173.952C148.656 173.818 148.719 173.683 148.688 173.515C148.313 168.879 145.469 166.729 139.687 166.729C134.531 166.729 131.469 169.081 131.469 172.978C131.469 177.244 134.531 178.387 139.469 178.924C145.375 179.562 145.844 180.469 145.844 181.712C145.844 183.896 144.219 184.803 140.406 184.803C135.625 184.803 134.562 183.526 134.219 180.973C134.187 180.704 133.969 180.503 133.688 180.503H131.344C131.063 180.503 130.812 180.738 130.812 181.074C130.812 184.333 132.469 188.229 140.375 188.229C146.156 188.229 149.438 185.811 149.438 181.578ZM166.469 164.747C166.469 166.797 164.906 168.476 163 168.476C161.094 168.476 159.531 166.797 159.531 164.747C159.531 162.631 161.156 161.019 163 161.019C164.875 160.985 166.469 162.631 166.469 164.747ZM165.906 164.747C165.906 163.001 164.594 161.623 162.969 161.623C161.375 161.623 160.062 163.001 160.062 164.747C160.062 166.494 161.375 167.905 162.969 167.905C164.594 167.872 165.906 166.461 165.906 164.747ZM164.5 166.83H163.688C163.656 166.629 163.531 165.554 163.531 165.52C163.469 165.285 163.406 165.151 163.125 165.151H162.438V166.83H161.688V162.631H163.031C163.5 162.631 164.406 162.631 164.406 163.74C164.406 164.512 163.937 164.68 163.656 164.781C164.188 164.815 164.219 165.184 164.313 165.722C164.344 166.058 164.406 166.629 164.5 166.83ZM163.625 163.874C163.625 163.303 163.25 163.303 163.063 163.303H162.438V164.479H163.031C163.531 164.479 163.625 164.109 163.625 163.874ZM78.9063 116.003C78.9063 115.096 78.4688 114.29 77.75 113.853L58.5938 101.994C58.2813 101.793 57.9063 101.692 57.5313 101.658H57.3438C56.9688 101.658 56.625 101.793 56.2813 101.994L37.1563 113.853C36.4375 114.29 36 115.129 36 116.003L36.0313 147.917C36.0313 148.354 36.25 148.757 36.5937 148.992C36.9375 149.227 37.375 149.227 37.75 148.992L49.125 141.971C49.8437 141.501 50.2813 140.694 50.2813 139.821V124.905C50.2813 124.032 50.7188 123.192 51.4375 122.755L56.2813 119.765C56.6563 119.53 57.0312 119.429 57.4375 119.429C57.8437 119.429 58.25 119.53 58.5938 119.765L63.4375 122.755C64.1563 123.192 64.5938 124.032 64.5938 124.905V139.821C64.5938 140.694 65.0312 141.534 65.75 141.971L77.125 148.992C77.4688 149.227 77.9375 149.227 78.2813 148.992C78.625 148.79 78.8438 148.354 78.8438 147.917L78.9063 116.003ZM183.656 81.1662V140.426C183.656 141.299 183.219 142.139 182.5 142.576L163.344 154.468C162.625 154.904 161.75 154.904 161.031 154.468L141.875 142.576C141.156 142.139 140.719 141.299 140.719 140.426V116.641C140.719 115.768 141.156 114.928 141.875 114.491L161.031 102.599C161.75 102.162 162.625 102.162 163.344 102.599L168.125 105.555C168.656 105.891 169.344 105.454 169.344 104.816V73.2381C169.344 72.2975 170.281 71.6928 171.063 72.1631L182.469 79.0162C183.188 79.4193 183.656 80.2592 183.656 81.1662ZM169.281 124.469C169.281 124.233 169.156 124.032 169 123.931L162.438 119.833C162.25 119.732 162.031 119.732 161.844 119.833L155.281 123.931C155.094 124.032 155 124.233 155 124.469V132.632C155 132.867 155.125 133.069 155.281 133.169L161.844 137.234C162.031 137.335 162.25 137.335 162.406 137.234L168.969 133.169C169.156 133.069 169.25 132.867 169.25 132.632V124.469H169.281ZM234.844 124.233C235.562 123.797 236 122.957 236 122.083V116.339C236 115.465 235.562 114.626 234.844 114.189L215.813 102.297C215.094 101.86 214.219 101.86 213.5 102.297L194.344 114.189C193.625 114.626 193.188 115.465 193.188 116.339V140.123C193.188 141.03 193.625 141.837 194.344 142.273L213.375 153.93C214.062 154.367 214.938 154.367 215.656 153.93L227.156 147.044C227.938 146.573 227.938 145.364 227.156 144.894L207.875 133.001C207.5 132.766 207.281 132.363 207.281 131.926V124.469C207.281 124.032 207.5 123.629 207.875 123.394L213.875 119.665C214.219 119.429 214.688 119.429 215.031 119.665L221.031 123.394C221.375 123.629 221.625 124.032 221.625 124.469V130.314C221.625 131.254 222.594 131.859 223.375 131.389L234.844 124.233ZM210.688 125.409C210.562 125.51 210.469 125.644 210.469 125.812V130.381C210.469 130.549 210.562 130.717 210.688 130.784L214.375 133.069C214.5 133.169 214.688 133.169 214.813 133.069L218.5 130.784C218.625 130.683 218.719 130.549 218.719 130.381V125.812C218.719 125.644 218.625 125.476 218.5 125.409L214.813 123.125C214.688 123.024 214.5 123.024 214.375 123.125L210.688 125.409ZM131.25 140.022V116.372C131.25 115.499 130.75 114.659 130.031 114.222L110.938 102.397C110.281 101.994 109.375 101.927 108.625 102.397L89.5313 114.222C88.8125 114.659 88.3125 115.465 88.3125 116.372V140.022C88.3125 140.963 88.9062 141.769 89.5625 142.172L108.688 153.997C109.438 154.468 110.312 154.434 111 153.997L130.062 142.172C130.625 141.837 131.031 141.265 131.188 140.594C131.219 140.426 131.25 140.224 131.25 140.022ZM108.031 98.0639L107.781 98.2318H108.125L108.031 98.0639ZM131.844 141.803L131.719 141.568V141.87L131.844 141.803Z" fill="white"/>
</svg>
