<svg width="272" height="260" viewBox="0 0 272 260" fill="none" xmlns="http://www.w3.org/2000/svg">
<ellipse cx="136" cy="130" rx="136" ry="130" fill="#5C9CFD"/>
<path d="M199.359 94.1805C197.25 93.4879 195.141 92.8338 193.031 92.2182C193.383 90.7945 193.695 89.3709 194.008 87.9473C198.813 65.0152 195.648 46.585 184.984 40.5057C174.711 34.6957 157.953 40.7365 141 55.2807C139.32 56.7043 137.68 58.2049 136.117 59.7055C135.062 58.7051 133.969 57.7047 132.875 56.7428C115.102 41.1982 97.2891 34.6572 86.625 40.775C76.3906 46.6234 73.3437 63.9764 77.6406 85.6771C78.0703 87.8318 78.5391 89.948 79.0859 92.1027C76.5859 92.7953 74.125 93.5648 71.8203 94.3728C50.9609 101.491 36 112.726 36 124.346C36 136.351 51.9375 148.394 73.6172 155.704C75.375 156.282 77.1328 156.859 78.9297 157.359C78.3438 159.668 77.8359 161.938 77.3672 164.285C73.2656 185.639 76.4688 202.569 86.7031 208.379C97.25 214.381 114.984 208.225 132.25 193.335C133.617 192.142 134.984 190.911 136.352 189.602C138.07 191.257 139.867 192.834 141.664 194.373C158.383 208.533 174.906 214.266 185.102 208.456C195.648 202.454 199.086 184.254 194.633 162.092C194.281 160.399 193.891 158.667 193.461 156.897C194.711 156.551 195.922 156.166 197.133 155.781C219.672 148.432 236 136.543 236 124.346C236 112.688 220.609 101.376 199.359 94.1805ZM146.508 61.5139C161.039 49.0475 174.594 44.1609 180.766 47.6623C187.367 51.3945 189.906 66.4773 185.766 86.2928C185.492 87.601 185.219 88.8707 184.867 90.1404C176.195 88.2166 167.406 86.8314 158.578 86.0619C153.5 78.9053 147.953 72.0564 141.938 65.6309C143.461 64.2072 144.945 62.8605 146.508 61.5139ZM101.312 144.315C103.305 147.663 105.336 151.01 107.484 154.281C101.391 153.627 95.3359 152.665 89.3594 151.395C91.0781 145.854 93.2266 140.121 95.7266 134.273C97.5234 137.659 99.3594 141.006 101.312 144.315ZM89.4766 98.0281C95.1016 96.7969 101.078 95.7965 107.289 95.0269C105.219 98.2205 103.188 101.491 101.273 104.8C99.3594 108.071 97.4844 111.418 95.7266 114.804C93.2656 109.071 91.1953 103.453 89.4766 98.0281ZM100.18 124.538C102.758 119.229 105.57 114.034 108.539 108.917C111.508 103.8 114.711 98.8361 118.07 93.9496C123.93 93.5264 129.906 93.2955 136 93.2955C142.094 93.2955 148.109 93.5264 153.93 93.9496C157.25 98.7977 160.414 103.761 163.422 108.84C166.43 113.919 169.242 119.113 171.898 124.385C169.281 129.694 166.469 134.927 163.461 140.083C160.492 145.2 157.328 150.164 154.008 155.089C148.188 155.512 142.133 155.704 136 155.704C129.867 155.704 123.93 155.512 118.187 155.166C114.789 150.279 111.586 145.277 108.578 140.16C105.57 135.043 102.797 129.848 100.18 124.538ZM170.727 144.238C172.719 140.853 174.594 137.428 176.43 133.965C178.93 139.544 181.117 145.2 183.031 151.01C176.977 152.357 170.844 153.396 164.672 154.088C166.781 150.856 168.773 147.547 170.727 144.238ZM176.352 114.804C174.516 111.418 172.641 108.032 170.687 104.723C168.773 101.453 166.781 98.2205 164.711 95.0269C171 95.7965 177.016 96.8353 182.641 98.1051C180.844 103.8 178.734 109.34 176.352 114.804ZM136.078 71.5178C140.18 75.9041 144.047 80.5213 147.641 85.2924C139.906 84.9461 132.133 84.9461 124.398 85.2924C128.227 80.3289 132.172 75.7117 136.078 71.5178ZM90.7656 47.9316C97.3281 44.1609 111.898 49.5477 127.25 62.9375C128.227 63.784 129.203 64.7074 130.219 65.6309C124.164 72.0564 118.578 78.9053 113.461 86.0619C104.633 86.8314 95.8828 88.1781 87.2109 90.0635C86.7031 88.1012 86.2734 86.1004 85.8437 84.0996C82.1719 65.4769 84.5937 51.433 90.7656 47.9316ZM81.1953 149.356C79.5547 148.894 77.9531 148.394 76.3516 147.855C68.0313 145.277 58.5781 141.199 51.7422 135.851C47.7969 133.157 45.1406 129.002 44.3984 124.346C44.3984 117.305 56.7422 108.301 74.5547 102.184C76.7812 101.414 79.0469 100.721 81.3125 100.067C83.9688 108.417 87.1719 116.612 90.8828 124.538C87.1328 132.58 83.8906 140.891 81.1953 149.356ZM126.742 187.063C120.297 192.873 112.836 197.49 104.711 200.645C100.375 202.684 95.375 202.877 90.9219 201.145C84.7109 197.605 82.1328 184.023 85.6484 165.747C86.0781 163.592 86.5469 161.438 87.0938 159.321C95.8438 161.168 104.672 162.438 113.617 163.092C118.773 170.287 124.437 177.174 130.492 183.638C129.242 184.831 127.992 185.986 126.742 187.063ZM136.312 177.713C132.328 173.481 128.344 168.787 124.477 163.746C128.227 163.9 132.094 163.977 136 163.977C140.023 163.977 143.969 163.9 147.875 163.708C144.281 168.594 140.414 173.25 136.312 177.713ZM187.367 189.256C187.016 193.95 184.672 198.337 180.922 201.299C174.711 204.839 161.469 200.222 147.172 188.14C145.531 186.755 143.891 185.254 142.211 183.715C148.187 177.213 153.695 170.326 158.695 163.092C167.641 162.361 176.547 161.014 185.336 159.052C185.727 160.629 186.078 162.207 186.391 163.746C188.305 172.057 188.617 180.714 187.367 189.256ZM194.477 147.894C193.383 148.24 192.289 148.586 191.156 148.894C188.422 140.506 185.063 132.311 181.195 124.346C184.945 116.497 188.109 108.417 190.766 100.144C192.797 100.721 194.75 101.337 196.625 101.953C214.828 108.109 227.602 117.266 227.602 124.269C227.602 131.811 213.969 141.545 194.477 147.894ZM136 142.122C145.883 142.122 153.891 134.235 153.891 124.5C153.891 114.765 145.883 106.878 136 106.878C126.117 106.878 118.109 114.765 118.109 124.5C118.109 134.235 126.117 142.122 136 142.122Z" fill="white"/>
</svg>
